<?xml version="1.0" encoding="UTF-8"?><svg id="Layer_1" xmlns="http://www.w3.org/2000/svg" viewBox="0 0 48 48"><path d="M13.902,5.869c.23-.23,.477-.434,.731-.628-.838-.798-1.93-1.242-3.094-1.242-2.51,0-4.54,2.03-4.54,4.54v9.46h2V8.54c0-1.4,1.14-2.54,2.54-2.54,.628,0,1.224,.236,1.692,.659,.203-.275,.422-.542,.67-.79Z"/><path d="M16.83,15.255c-.175,0-.351-.046-.509-.139-.408-.242-.729-.484-1.007-.763-1.947-1.948-1.947-5.121,.002-7.07s5.121-1.949,7.07,0c.278,.278,.521,.599,.762,1.006,.231,.394,.168,.894-.154,1.216l-5.457,5.457c-.192,.192-.448,.293-.707,.293Z"/><path d="M41,43.73c-.96,.55-2.18,.23-2.73-.73l-.07-.08c1.23-.54,2.36-1.27,3.36-2.14l.17,.22c.55,.96,.23,2.18-.73,2.73Z"/><path d="M9.8,42.92l-.07,.08c-.55,.96-1.77,1.28-2.73,.73s-1.28-1.77-.73-2.73l.17-.22c1,.87,2.13,1.6,3.36,2.14Z"/><path d="M43.5,27H4.5c-.17,0-.34-.01-.5-.03v4.03c0,6.07,4.93,11,11,11h18c6.07,0,11-4.93,11-11v-4.03c-.16,.02-.33,.03-.5,.03Z"/><rect x="2" y="20" width="44" height="5" rx="2.5" ry="2.5"/></svg>