<?xml version="1.0" encoding="UTF-8" standalone="no"?> <svg id="Layer_1" data-name="Layer 1" xmlns="http://www.w3.org/2000/svg" viewBox="0 0 128 128"><defs><style>.cls-1{fill:#2d3e50;}.cls-2{fill:#2e79bd;}</style></defs><title>b</title><path class="cls-1" d="M19.51789,67.82829h6.67656V64.0857a11.75649,11.75649,0,0,1-1.4125-.86822,10.53194,10.53194,0,0,1-1.59139-1.73664,10.0535,10.0535,0,0,1-1.99832-6.03374V51.12394a19.41147,19.41147,0,0,0,3.74259.35767c4.43721,0,8.27574-1.4436,10.12372-3.54045a8.55663,8.55663,0,0,0,2.60215,1.9232,14.71179,14.71179,0,0,0,3.70116,1.2441v4.33864a10.12453,10.12453,0,0,1-3.60009,7.73659,2.0386,2.0386,0,0,1-.25655.18932l-1.08858.71v3.74524h6.6247c.09853,0,.19441-.00509.29548-.01293h4.1625v-18.161a16.22231,16.22231,0,0,0-16.22225-16.2223H31.277a16.22228,16.22228,0,0,0-16.22225,16.2223v18.161h4.1625C19.31834,67.8232,19.41941,67.82829,19.51789,67.82829Z"/><path class="cls-1" d="M59.24273,82.99988c-1.49658-4.47737-5.49994-6.32586-9.58193-7.90942-2.09069-.81356-4.18754-1.62081-6.28032-2.4364-.03725-.01242-.07247-.02687-.10972-.04132-.01242-.00417-.02687-.01038-.03934-.01445L36.388,73.63944l-.11588.621a6.90638,6.90638,0,0,1-.63136,1.72432,13.33045,13.33045,0,0,1-1.29169,2.02438,18.87411,18.87411,0,0,1-1.69735,1.93552,18.407,18.407,0,0,1-1.37449,1.242,18.01249,18.01249,0,0,1-1.37449-1.242,19.1544,19.1544,0,0,1-1.69943-1.93552,13.57587,13.57587,0,0,1-1.29169-2.02652,6.853,6.853,0,0,1-.62923-1.72218l-.118-.621-6.833-1.04115c-.01654.00407-.03313.01232-.04763.01649-.03725.01445-.07242.02891-.10967.04132q-3.13917,1.22034-6.28037,2.43436c-4.0799,1.58355-8.08326,3.432-9.58193,7.90942-.267.799-1.42619,7.13108-1.95822,10.07253A1.26774,1.26774,0,0,0,2.60183,94.5669h57.3509A1.26876,1.26876,0,0,0,61.201,93.07241C60.669,90.131,59.50976,83.79888,59.24273,82.99988Zm-35.1545,4.4794c-.46988-.76582-.90252-1.56075-1.31235-2.40535A26.66324,26.66324,0,0,1,21.389,81.62539a19.95351,19.95351,0,0,1-.83834-3.70727l-.05588-.503c-.01038-.10769-.0145-.21945-.02071-.32917l-.01242-.26291c-.00621-.13039-.01242-.25873-.01654-.38912l.01033-.53406v-.01659a9.334,9.334,0,0,1,.08071-.99361l.00621-.05791c.00621-.07033.01863-.15115.03313-.23807l4.10687.62516A9.57188,9.57188,0,0,0,25.322,76.794a15.3227,15.3227,0,0,0,1.46141,2.2936A20.60154,20.60154,0,0,0,28.6422,81.2094q.61483.61162,1.24614,1.1467ZM42.093,76.8272l-.01247.25873c-.00621.11176-.01033.22148-.02071.31879l-.05588.50505a19.97477,19.97477,0,0,1-.83626,3.71348,27.30247,27.30247,0,0,1-1.38894,3.45067c-.40988.8446-.84252,1.63953-1.3124,2.40535l-5.8-5.12319q.63032-.53406,1.24609-1.1467a20.60212,20.60212,0,0,0,1.85888-2.12179,15.39961,15.39961,0,0,0,1.45933-2.29146,9.3128,9.3128,0,0,0,.63961-1.57734l4.10687-.62516a2.22057,2.22057,0,0,1,.03517.23807l.00621.06a9.28486,9.28486,0,0,1,.08071.99158l.01038.55065C42.10534,76.56643,42.09913,76.69672,42.093,76.8272Z"/><path class="cls-2" d="M85.04844,75.77873l4.03456.61447a10.21664,10.21664,0,0,0,.44444.98934,16.78852,16.78852,0,0,0,1.5922,2.50419A22.94656,22.94656,0,0,0,93.09053,82.132,20.86544,20.86544,0,0,0,94.70207,83.585l1.95547,1.58844.06565-.05415.0657.05415L98.74436,83.585a20.86543,20.86543,0,0,0,1.61154-1.45307,22.94656,22.94656,0,0,0,1.97089-2.24525,16.79263,16.79263,0,0,0,1.5922-2.50419,10.21613,10.21613,0,0,0,.44439-.98934l4.03461-.61447.01929.00774,6.19487-.916q-2.85778-1.1014-5.71175-2.21441c-.03868-.0115-.07344-.027-.11211-.04244-.01547-.00387-.03089-.0115-.04636-.01537h-.01547L101.894,73.63781l-.1198.6222a6.77389,6.77389,0,0,1-.62607,1.72361A13.56366,13.56366,0,0,1,99.8535,78.0085,19.25593,19.25593,0,0,1,98.157,79.94474a17.33489,17.33489,0,0,1-1.36808,1.2327l-.0657-.054-.06565.054a17.33489,17.33489,0,0,1-1.36808-1.2327,19.24953,19.24953,0,0,1-1.69653-1.93623,13.5683,13.5683,0,0,1-1.29464-2.02489,6.77359,6.77359,0,0,1-.626-1.72361l-.1198-.6222-6.83254-1.03952h-.01542c-.01547.00387-.03094.0115-.04636.01537-.03868.01547-.07344.03094-.11211.04244q-2.852,1.11316-5.71175,2.21441l6.19482.916Z"/><path class="cls-1" d="M126.64646,93.07241c-.52943-2.94094-1.6888-9.27485-1.95542-10.071a10.93608,10.93608,0,0,0-5.7687-6.22886L108.002,78.38714l-.01094-.0055-1.91114.291a19.45928,19.45928,0,0,1-1.75226,2.73279,25.5756,25.5756,0,0,1-2.19532,2.50286,23.40172,23.40172,0,0,1-1.807,1.62874l-3.54864,2.88242-.05359-.04407-.05359.04428L93.11816,85.5346a23.38118,23.38118,0,0,1-1.80391-1.6263,25.5865,25.5865,0,0,1-2.18744-2.492,19.54255,19.54255,0,0,1-1.76015-2.74368l-1.91114-.291-.01094.0055L74.52435,76.77265a10.92212,10.92212,0,0,0-5.76483,6.22876c-.26662.79615-1.426,7.13006-1.95934,10.071a1.266,1.266,0,0,0,1.11687,1.48777.58472.58472,0,0,0,.11593.00774h57.34978c.04636,0,.08886-.00387.1314-.00774A1.26434,1.26434,0,0,0,126.64646,93.07241Z"/><path class="cls-1" d="M82.34669,49.50477l1.97288,10.17136a12.6355,12.6355,0,0,0,24.80731,0l1.75-9.01693.24479-1.27128a13.33013,13.33013,0,0,0-5.96982-12.97733,12.98068,12.98068,0,0,0-2.426-1.23851,13.258,13.258,0,0,0-4.81529-.90242H95.53583A13.32948,13.32948,0,0,0,82.32475,49.38792Zm4.2965.252c5.90774,0,11.198-1.38833,14.76018-3.58035a17.97086,17.97086,0,0,0,6.75529,3.7375L106.36848,59.139a9.82512,9.82512,0,0,1-19.29052,0l-1.82671-9.40767C85.71156,49.74956,86.17554,49.75678,86.64319,49.75678Z"/></svg>